<svg viewBox="0 0 101 87" width="101" height="87" xmlns="http://www.w3.org/2000/svg">
    <defs>
        <style>
            :root {
            --p-1-color: rgba(255, 153, 153, 1);
            --p-2-color: rgba(153, 153, 255, 1);
            }

            #_,
            [id^="_-"],
            [id^="p-"],
            [id^="c-"] { display: none }

            #_:target,
            [id^="_-"]:target,
            [id^="p-"]:target,
            [id^="c-"]:target { display: inline }

            #_ { fill: #bdb76b }
            [id^="_-"] path { fill: #00f }

            #_-p-1 path { fill: var(--p-1-color) }

            [id^="p-1"],
            #c-1-1,
            #c-2-1 { fill: var(--p-1-color) }

            [id^="p-2"],
            #c-1-2,
            #c-2-2 { fill: var(--p-2-color) }

            #frame path { fill: var(--p-1-color) }
        </style>

        <g id="frame">
            <path d="M53.129,86.618L53.129,81.203L71.887,81.203L81.263,64.963L85.952,67.671L75.013,86.618L53.129,86.618Z"/>
            <path d="M46.952,86.617L46.952,81.202L28.193,81.202L18.817,64.961L14.129,67.669L25.067,86.617L46.952,86.617Z"/>
            <path d="M46.952,0L46.952,5.415L28.193,5.415L18.817,21.656L14.129,18.947L25.067,0L46.952,0Z"/>
            <path d="M53.129,-0.039L53.129,5.376L71.887,5.376L81.263,21.616L85.952,18.908L75.013,-0.039L53.129,-0.039Z"/>
            <path d="M89.073,24.361L100.016,43.359L89.073,62.257L84.389,59.549L93.765,43.308L84.389,27.068L89.073,24.361Z"/>
            <path d="M10.943,24.361L0,43.359L10.943,62.257L15.628,59.549L6.251,43.308L15.628,27.068L10.943,24.361Z"/>
        </g>
    </defs>

    <g id="_-p-1">
<!--        <path d="M87.514,43.308L68.761,75.789L31.255,75.789L12.502,43.309L31.255,10.828L68.761,10.828L87.514,43.308Z"/>-->
        <use href="#frame"/>
    </g>

    <path id="_" d="M75.012 0l25.004 43.308-25.004 43.309H25.004L0 43.308 25.004 0h50.008z"/>

    <!-- COMMON -->

    <path id="c-1-1" d="M87.514,21.616L100.016,43.308L87.514,63.962L51.008,43.308L87.514,21.616Z"/>
    <path id="c-1-2" d="M50.008,44.308L86.514,64.962L75.012,86.617L50.008,86.617L50.008,44.308Z"/>

    <path id="c-2-1" d="M12.502,21.616L0,43.308L12.502,64.962L50.008,43.308L12.502,21.616Z"/>
    <path id="c-2-2" d="M50.008,41.308L13.502,20L25.004,0L50.008,0L50.008,41.308Z"/>

    <!-- PLAYER 1 RED -->

    <path id="p-1" d="M87.514,21.616L100.016,43.308L75.012,86.617L25.004,86.617L12.502,64.962L87.514,21.616Z"/>
    <path id="p-1-2" d="M12.502,65L0,43.308L25.004,0L75.012,0L87.514,21.654L12.502,65Z"/>
    <path id="p-1-3" d="M75,29L100.016,43.308L75.012,86.617L25.004,86.617L12.502,64.962L75,29Z"/>
    <path id="p-1-4" d="M25.004,58L0,43.308L25.004,0L75.012,0L87.514,21.654L25.004,58Z"/>

    <!-- PLAYER 2 BLUE -->

    <path id="p-2" d="M50.008,-0.028L75.012,0L100.016,43.308L75.012,86.617L50.008,86.617L50.008,-0.028Z"/>
    <path id="p-2-2" d="M50.008,-0.028L25.004,0L0,43.308L25.004,86.617L50.008,86.617L50.008,-0.028Z"/>
    <path id="p-2-3" d="M50.008,-0.028L75.012,0L100.016,43.308L75.012,86.617L50.008,72L50.008,-0.028Z"/>
    <path id="p-2-4" d="M50.008,14L25.004,0L0,43.308L25.004,86.617L50.008,86.617L50.008,14Z"/>

</svg>
