<svg viewBox="0 0 101 87" width="101" height="87" xmlns="http://www.w3.org/2000/svg">
    <defs>
        <style>
            :root {
            --p-1-color: rgba(255, 153, 153, 1);
            --p-2-color: rgba(153, 153, 255, 1);
            }

            path { display: none }
            path:target { display: inline }
            #_ { fill: #bdb76b }

            [id^="p-1"],
            [id^="c-1-1"],
            [id^="c-2-1"] { fill: var(--p-1-color) }

            [id^="p-2"],
            [id^="c-1-2"],
            [id^="c-2-2"] { fill: var(--p-2-color) }
        </style>
    </defs>

    <path id="_" d="M75.012 0l25.004 43.308-25.004 43.309H25.004L0 43.308 25.004 0h50.008z"/>

    <!-- COMMON -->

    <path id="c-1-1" d="M87.514,21.616L100.016,43.308L87.514,63.962L51.008,43.308L87.514,21.616Z" />
    <path id="c-1-2" d="M50.008,44.308L86.514,64.962L75.012,86.617L50.008,86.617L50.008,44.308Z" />

    <path id="c-2-1" d="M12.502,21.616L0,43.308L12.502,64.962L50.008,43.308L12.502,21.616Z" />
    <path id="c-2-2" d="M50.008,41.308L13.502,20L25.004,0L50.008,0L50.008,41.308Z" />

    <!-- PLAYER 1 RED -->

    <path id="p-1" d="M87.514,21.616L100.016,43.308L75.012,86.617L25.004,86.617L12.502,64.962L87.514,21.616Z"/>
    <path id="p-1-2" d="M12.502,65L0,43.308L25.004,0L75.012,0L87.514,21.654L12.502,65Z"/>
    <path id="p-1-3" d="M75,29L100.016,43.308L75.012,86.617L25.004,86.617L12.502,64.962L75,29Z"/>
    <path id="p-1-4" d="M25.004,58L0,43.308L25.004,0L75.012,0L87.514,21.654L25.004,58Z"/>

    <!-- PLAYER 2 BLUE -->

    <path id="p-2" d="M50.008,-0.028L75.012,0L100.016,43.308L75.012,86.617L50.008,86.617L50.008,-0.028Z"/>
    <path id="p-2-2" d="M50.008,-0.028L25.004,0L0,43.308L25.004,86.617L50.008,86.617L50.008,-0.028Z"/>
    <path id="p-2-3" d="M50.008,-0.028L75.012,0L100.016,43.308L75.012,86.617L50.008,72L50.008,-0.028Z"/>
    <path id="p-2-4" d="M50.008,14L25.004,0L0,43.308L25.004,86.617L50.008,86.617L50.008,14Z"/>
</svg>
