<svg viewBox="0 0 101 87" width="101" height="87" xmlns="http://www.w3.org/2000/svg">
    <defs>
        <style>
            #_ { fill: #bdb76b }
            [id^="_"], [id^="p-"], [id^="c-"] { display: none }
            [id^="_"]:target, [id^="p-"]:target, [id^="c-"]:target { display: inline }
            [id^="p-1"], #c-1-1, #_-p-1, #_p1, #c-2-1 { fill: rgba(255, 153, 153, 1) }
            [id^="p-2"], #c-1-2, #_-p-2, #_p2, #c-2-2 { fill: rgba(153, 153, 255, 1) }
            [id^="_-p"] { filter: drop-shadow(0 0 0.5em rgba(0, 0, 0, .7)) }
        </style>
    </defs>

    <path id="_-p-1"
          d="M87.514,43.308L68.761,75.789L31.255,75.789L12.502,43.309L31.255,10.828L68.761,10.828L87.514,43.308Z"/>

    <path id="_-p-2"
          d="M87.514,43.308L68.761,75.789L31.255,75.789L12.502,43.309L31.255,10.828L68.761,10.828L87.514,43.308Z"/>

    <path id="_" d="M75.012 0l25.004 43.308-25.004 43.309H25.004L0 43.308 25.004 0h50.008z"/>

    <path id="_p1" d="M75.012 0l25.004 43.308-25.004 43.309H25.004L0 43.308 25.004 0h50.008z"/>

    <path id="_p2" d="M75.012 0l25.004 43.308-25.004 43.309H25.004L0 43.308 25.004 0h50.008z"/>

    <!-- COMMON -->

    <path id="c-1-1" d="M87.514,21.616L100.016,43.308L87.514,63.962L51.008,43.308L87.514,21.616Z"/>
    <path id="c-1-2" d="M50.008,44.308L86.514,64.962L75.012,86.617L50.008,86.617L50.008,44.308Z"/>

    <path id="c-2-1" d="M12.502,21.616L0,43.308L12.502,64.962L50.008,43.308L12.502,21.616Z"/>
    <path id="c-2-2" d="M50.008,41.308L13.502,20L25.004,0L50.008,0L50.008,41.308Z"/>

    <!-- PLAYER 1 RED -->

    <path id="p-1" d="M87.514,21.616L100.016,43.308L75.012,86.617L25.004,86.617L12.502,64.962L87.514,21.616Z"/>
    <path id="p-1-2" d="M12.502,65L0,43.308L25.004,0L75.012,0L87.514,21.654L12.502,65Z"/>
    <path id="p-1-3" d="M75,29L100.016,43.308L75.012,86.617L25.004,86.617L12.502,64.962L75,29Z"/>
    <path id="p-1-4" d="M25.004,58L0,43.308L25.004,0L75.012,0L87.514,21.654L25.004,58Z"/>

    <!-- PLAYER 2 BLUE -->

    <path id="p-2" d="M50.008,-0.028L75.012,0L100.016,43.308L75.012,86.617L50.008,86.617L50.008,-0.028Z"/>
    <path id="p-2-2" d="M50.008,-0.028L25.004,0L0,43.308L25.004,86.617L50.008,86.617L50.008,-0.028Z"/>
    <path id="p-2-3" d="M50.008,-0.028L75.012,0L100.016,43.308L75.012,86.617L50.008,72L50.008,-0.028Z"/>
    <path id="p-2-4" d="M50.008,14L25.004,0L0,43.308L25.004,86.617L50.008,86.617L50.008,14Z"/>
</svg>
